<mxfile host="app.diagrams.net" modified="2024-03-01T10:15:30.448Z" agent="Mozilla/5.0 (Macintosh; Intel Mac OS X 10_15_7) AppleWebKit/605.1.15 (KHTML, like Gecko) Version/16.4 Safari/605.1.15" etag="NvNoHIlwXSxerOnhdc0u" version="23.0.1" type="github">
  <diagram name="第 1 页" id="3Zn17BnJUyFozEldDKFn">
    <mxGraphModel dx="783" dy="581" grid="1" gridSize="10" guides="1" tooltips="1" connect="1" arrows="1" fold="1" page="1" pageScale="1" pageWidth="827" pageHeight="1169" math="1" shadow="0">
      <root>
        <mxCell id="0" />
        <mxCell id="1" parent="0" />
        <mxCell id="46nL9OvJyzbRQ-rPsuV2-16" value="" style="rounded=1;whiteSpace=wrap;html=1;strokeWidth=2;dashed=1;" vertex="1" parent="1">
          <mxGeometry x="170" y="250" width="400" height="130" as="geometry" />
        </mxCell>
        <mxCell id="46nL9OvJyzbRQ-rPsuV2-5" style="edgeStyle=orthogonalEdgeStyle;rounded=0;orthogonalLoop=1;jettySize=auto;html=1;entryX=0;entryY=0.5;entryDx=0;entryDy=0;strokeWidth=2;" edge="1" parent="1" source="46nL9OvJyzbRQ-rPsuV2-3" target="46nL9OvJyzbRQ-rPsuV2-4">
          <mxGeometry relative="1" as="geometry" />
        </mxCell>
        <mxCell id="46nL9OvJyzbRQ-rPsuV2-3" value="&lt;font size=&quot;4&quot; face=&quot;Times New Roman&quot;&gt;&lt;b&gt;Actor网络&lt;/b&gt;&lt;/font&gt;" style="rounded=0;whiteSpace=wrap;html=1;fillColor=#f0a30a;strokeColor=#BD7000;movable=1;resizable=1;rotatable=1;deletable=1;editable=1;locked=0;connectable=1;fontColor=#000000;" vertex="1" parent="1">
          <mxGeometry x="190" y="300" width="126.94117647058823" height="60" as="geometry" />
        </mxCell>
        <mxCell id="46nL9OvJyzbRQ-rPsuV2-27" style="edgeStyle=orthogonalEdgeStyle;rounded=0;orthogonalLoop=1;jettySize=auto;html=1;entryX=1;entryY=0.5;entryDx=0;entryDy=0;strokeWidth=2;" edge="1" parent="1" source="46nL9OvJyzbRQ-rPsuV2-4" target="46nL9OvJyzbRQ-rPsuV2-20">
          <mxGeometry relative="1" as="geometry">
            <Array as="points">
              <mxPoint x="460" y="435" />
            </Array>
          </mxGeometry>
        </mxCell>
        <mxCell id="46nL9OvJyzbRQ-rPsuV2-39" style="edgeStyle=orthogonalEdgeStyle;rounded=0;orthogonalLoop=1;jettySize=auto;html=1;exitX=0.5;exitY=1;exitDx=0;exitDy=0;entryX=0;entryY=0.5;entryDx=0;entryDy=0;strokeWidth=2;" edge="1" parent="1" source="46nL9OvJyzbRQ-rPsuV2-4" target="46nL9OvJyzbRQ-rPsuV2-37">
          <mxGeometry relative="1" as="geometry" />
        </mxCell>
        <mxCell id="46nL9OvJyzbRQ-rPsuV2-4" value="&lt;font size=&quot;4&quot; face=&quot;Times New Roman&quot;&gt;&lt;b&gt;Critic网络&lt;/b&gt;&lt;/font&gt;" style="rounded=0;whiteSpace=wrap;html=1;fillColor=#fa6800;strokeColor=#C73500;movable=1;resizable=1;rotatable=1;deletable=1;editable=1;locked=0;connectable=1;fontColor=#000000;" vertex="1" parent="1">
          <mxGeometry x="410" y="300" width="126.94117647058823" height="60" as="geometry" />
        </mxCell>
        <mxCell id="46nL9OvJyzbRQ-rPsuV2-6" value="&lt;font style=&quot;font-size: 18px;&quot; face=&quot;Times New Roman&quot;&gt;$$\mu(s_{t}^{\mathrm{j}},\theta_{\mu})$$&lt;/font&gt;" style="text;html=1;align=center;verticalAlign=middle;resizable=0;points=[];autosize=1;strokeColor=none;fillColor=none;" vertex="1" parent="1">
          <mxGeometry x="90" y="30" width="350" height="30" as="geometry" />
        </mxCell>
        <mxCell id="46nL9OvJyzbRQ-rPsuV2-7" value="" style="endArrow=classic;html=1;rounded=0;strokeWidth=2;entryX=0.559;entryY=0.017;entryDx=0;entryDy=0;entryPerimeter=0;" edge="1" parent="1" target="46nL9OvJyzbRQ-rPsuV2-4">
          <mxGeometry width="50" height="50" relative="1" as="geometry">
            <mxPoint x="480" y="230" as="sourcePoint" />
            <mxPoint x="480" y="280" as="targetPoint" />
          </mxGeometry>
        </mxCell>
        <mxCell id="46nL9OvJyzbRQ-rPsuV2-12" value="&lt;font style=&quot;font-size: 18px;&quot; face=&quot;Times New Roman&quot;&gt;$$s_t^{\mathrm{j}}$$&lt;/font&gt;" style="text;html=1;align=center;verticalAlign=middle;resizable=0;points=[];autosize=1;strokeColor=none;fillColor=none;" vertex="1" parent="1">
          <mxGeometry x="410" y="20" width="190" height="30" as="geometry" />
        </mxCell>
        <mxCell id="46nL9OvJyzbRQ-rPsuV2-13" value="&lt;font style=&quot;font-size: 18px;&quot; face=&quot;Times New Roman&quot;&gt;$$\mathbf{a}_{t}^{\mathbf{j}}$$&lt;/font&gt;" style="text;html=1;align=center;verticalAlign=middle;resizable=0;points=[];autosize=1;strokeColor=none;fillColor=none;" vertex="1" parent="1">
          <mxGeometry x="550" y="18" width="280" height="30" as="geometry" />
        </mxCell>
        <mxCell id="46nL9OvJyzbRQ-rPsuV2-14" value="&lt;font style=&quot;font-size: 18px;&quot; face=&quot;Times New Roman&quot;&gt;$$s_t^{\mathrm{j}}$$&lt;/font&gt;" style="text;html=1;align=center;verticalAlign=middle;resizable=0;points=[];autosize=1;strokeColor=none;fillColor=none;" vertex="1" parent="1">
          <mxGeometry x="410" y="50" width="190" height="30" as="geometry" />
        </mxCell>
        <mxCell id="46nL9OvJyzbRQ-rPsuV2-15" value="" style="endArrow=classic;html=1;rounded=0;strokeWidth=2;entryX=0.559;entryY=0.017;entryDx=0;entryDy=0;entryPerimeter=0;" edge="1" parent="1">
          <mxGeometry width="50" height="50" relative="1" as="geometry">
            <mxPoint x="510" y="229" as="sourcePoint" />
            <mxPoint x="511" y="300" as="targetPoint" />
          </mxGeometry>
        </mxCell>
        <mxCell id="46nL9OvJyzbRQ-rPsuV2-17" value="" style="endArrow=classic;html=1;rounded=0;strokeWidth=2;entryX=0;entryY=0.5;entryDx=0;entryDy=0;" edge="1" parent="1" target="46nL9OvJyzbRQ-rPsuV2-3">
          <mxGeometry width="50" height="50" relative="1" as="geometry">
            <mxPoint x="150" y="220" as="sourcePoint" />
            <mxPoint x="150" y="390" as="targetPoint" />
            <Array as="points">
              <mxPoint x="150" y="330" />
            </Array>
          </mxGeometry>
        </mxCell>
        <mxCell id="46nL9OvJyzbRQ-rPsuV2-25" style="edgeStyle=orthogonalEdgeStyle;rounded=0;orthogonalLoop=1;jettySize=auto;html=1;entryX=0.25;entryY=1;entryDx=0;entryDy=0;strokeWidth=2;strokeColor=#FF0000;dashed=1;dashPattern=1 1;" edge="1" parent="1" source="46nL9OvJyzbRQ-rPsuV2-20" target="46nL9OvJyzbRQ-rPsuV2-3">
          <mxGeometry relative="1" as="geometry" />
        </mxCell>
        <mxCell id="46nL9OvJyzbRQ-rPsuV2-20" value="&lt;font style=&quot;font-size: 20px;&quot; face=&quot;Times New Roman&quot;&gt;策略梯度&lt;/font&gt;" style="rounded=0;whiteSpace=wrap;html=1;fillColor=#dae8fc;gradientColor=#7ea6e0;strokeColor=#6c8ebf;" vertex="1" parent="1">
          <mxGeometry x="177" y="420" width="90" height="30" as="geometry" />
        </mxCell>
        <mxCell id="46nL9OvJyzbRQ-rPsuV2-21" value="&lt;font style=&quot;font-size: 18px;&quot; face=&quot;Times New Roman&quot; color=&quot;#ff0000&quot;&gt;&lt;b&gt;更新&lt;/b&gt;&lt;/font&gt;" style="text;html=1;align=center;verticalAlign=middle;resizable=0;points=[];autosize=1;strokeColor=none;fillColor=none;" vertex="1" parent="1">
          <mxGeometry x="170" y="390" width="60" height="30" as="geometry" />
        </mxCell>
        <mxCell id="46nL9OvJyzbRQ-rPsuV2-29" value="&lt;font face=&quot;Times New Roman&quot; style=&quot;font-size: 18px;&quot; color=&quot;#ff0000&quot;&gt;&lt;b&gt;复制权重&lt;/b&gt;&lt;/font&gt;" style="text;html=1;align=center;verticalAlign=middle;resizable=0;points=[];autosize=1;strokeColor=none;fillColor=none;" vertex="1" parent="1">
          <mxGeometry x="314" y="380" width="100" height="30" as="geometry" />
        </mxCell>
        <mxCell id="46nL9OvJyzbRQ-rPsuV2-30" value="" style="rounded=1;whiteSpace=wrap;html=1;strokeWidth=2;dashed=1;" vertex="1" parent="1">
          <mxGeometry x="580" y="250" width="400" height="130" as="geometry" />
        </mxCell>
        <mxCell id="46nL9OvJyzbRQ-rPsuV2-31" style="edgeStyle=orthogonalEdgeStyle;rounded=0;orthogonalLoop=1;jettySize=auto;html=1;entryX=0;entryY=0.5;entryDx=0;entryDy=0;strokeWidth=2;" edge="1" parent="1" source="46nL9OvJyzbRQ-rPsuV2-32" target="46nL9OvJyzbRQ-rPsuV2-33">
          <mxGeometry relative="1" as="geometry" />
        </mxCell>
        <mxCell id="46nL9OvJyzbRQ-rPsuV2-32" value="&lt;font size=&quot;4&quot; face=&quot;Times New Roman&quot;&gt;&lt;b&gt;Actor网络&lt;/b&gt;&lt;/font&gt;" style="rounded=0;whiteSpace=wrap;html=1;fillColor=#f0a30a;strokeColor=#BD7000;movable=1;resizable=1;rotatable=1;deletable=1;editable=1;locked=0;connectable=1;fontColor=#000000;" vertex="1" parent="1">
          <mxGeometry x="600" y="300" width="126.94117647058823" height="60" as="geometry" />
        </mxCell>
        <mxCell id="46nL9OvJyzbRQ-rPsuV2-40" style="edgeStyle=orthogonalEdgeStyle;rounded=0;orthogonalLoop=1;jettySize=auto;html=1;entryX=1;entryY=0.5;entryDx=0;entryDy=0;strokeWidth=2;" edge="1" parent="1" source="46nL9OvJyzbRQ-rPsuV2-33" target="46nL9OvJyzbRQ-rPsuV2-37">
          <mxGeometry relative="1" as="geometry">
            <Array as="points">
              <mxPoint x="970" y="330" />
              <mxPoint x="970" y="435" />
            </Array>
          </mxGeometry>
        </mxCell>
        <mxCell id="46nL9OvJyzbRQ-rPsuV2-33" value="&lt;font size=&quot;4&quot; face=&quot;Times New Roman&quot;&gt;&lt;b&gt;Critic网络&lt;/b&gt;&lt;/font&gt;" style="rounded=0;whiteSpace=wrap;html=1;fillColor=#fa6800;strokeColor=#C73500;movable=1;resizable=1;rotatable=1;deletable=1;editable=1;locked=0;connectable=1;fontColor=#000000;" vertex="1" parent="1">
          <mxGeometry x="820" y="300" width="126.94117647058823" height="60" as="geometry" />
        </mxCell>
        <mxCell id="46nL9OvJyzbRQ-rPsuV2-34" value="" style="endArrow=classic;html=1;rounded=0;strokeWidth=2;entryX=0.559;entryY=0.017;entryDx=0;entryDy=0;entryPerimeter=0;" edge="1" parent="1">
          <mxGeometry width="50" height="50" relative="1" as="geometry">
            <mxPoint x="864" y="230" as="sourcePoint" />
            <mxPoint x="864.9601176470587" y="301.02" as="targetPoint" />
          </mxGeometry>
        </mxCell>
        <mxCell id="46nL9OvJyzbRQ-rPsuV2-35" value="" style="endArrow=classic;html=1;rounded=0;strokeWidth=2;entryX=0.559;entryY=0.017;entryDx=0;entryDy=0;entryPerimeter=0;" edge="1" parent="1">
          <mxGeometry width="50" height="50" relative="1" as="geometry">
            <mxPoint x="640" y="229" as="sourcePoint" />
            <mxPoint x="641" y="300" as="targetPoint" />
          </mxGeometry>
        </mxCell>
        <mxCell id="46nL9OvJyzbRQ-rPsuV2-37" value="&lt;font face=&quot;Times New Roman&quot;&gt;&lt;span style=&quot;font-size: 20px;&quot;&gt;损失函数&lt;/span&gt;&lt;/font&gt;" style="rounded=0;whiteSpace=wrap;html=1;fillColor=#d5e8d4;gradientColor=#97d077;strokeColor=#82b366;" vertex="1" parent="1">
          <mxGeometry x="660" y="430" width="90" height="40" as="geometry" />
        </mxCell>
        <mxCell id="46nL9OvJyzbRQ-rPsuV2-28" style="edgeStyle=orthogonalEdgeStyle;rounded=0;orthogonalLoop=1;jettySize=auto;html=1;exitX=0.5;exitY=1;exitDx=0;exitDy=0;strokeWidth=2;strokeColor=#FF0000;entryX=0.25;entryY=1;entryDx=0;entryDy=0;" edge="1" parent="1" source="46nL9OvJyzbRQ-rPsuV2-3" target="46nL9OvJyzbRQ-rPsuV2-32">
          <mxGeometry relative="1" as="geometry">
            <mxPoint x="750" y="450" as="targetPoint" />
            <Array as="points">
              <mxPoint x="254" y="410" />
              <mxPoint x="632" y="410" />
            </Array>
          </mxGeometry>
        </mxCell>
        <mxCell id="46nL9OvJyzbRQ-rPsuV2-42" style="edgeStyle=orthogonalEdgeStyle;rounded=0;orthogonalLoop=1;jettySize=auto;html=1;exitX=0.75;exitY=1;exitDx=0;exitDy=0;entryX=0.75;entryY=1;entryDx=0;entryDy=0;strokeWidth=2;strokeColor=#FF0000;" edge="1" parent="1" source="46nL9OvJyzbRQ-rPsuV2-4" target="46nL9OvJyzbRQ-rPsuV2-33">
          <mxGeometry relative="1" as="geometry">
            <Array as="points">
              <mxPoint x="505" y="420" />
              <mxPoint x="915" y="420" />
            </Array>
          </mxGeometry>
        </mxCell>
        <mxCell id="46nL9OvJyzbRQ-rPsuV2-43" value="&lt;font face=&quot;Times New Roman&quot; style=&quot;font-size: 18px;&quot; color=&quot;#ff0000&quot;&gt;&lt;b&gt;复制权重&lt;/b&gt;&lt;/font&gt;" style="text;html=1;align=center;verticalAlign=middle;resizable=0;points=[];autosize=1;strokeColor=none;fillColor=none;" vertex="1" parent="1">
          <mxGeometry x="720" y="390" width="100" height="30" as="geometry" />
        </mxCell>
      </root>
    </mxGraphModel>
  </diagram>
</mxfile>
